/* XPM */
static char * collectible[] = {
"32 32 11 1",
" 	c #18A060",
".	c #10B878",
"+	c #18D890",
"@	c #F80000",
"#	c #00E000",
"$	c #000010",
"%	c #386078",
"&	c #98C8F8",
"*	c #284050",
"=	c #F8F8F8",
"-	c #0080A8",
"            ........            ",
"            ........            ",
"                                ",
"                                ",
"            ........            ",
"            ........            ",
"            ..++++..            ",
"            ..++++..            ",
"        @@@@@@@@@@@@@@@@        ",
"        @##############@        ",
"        @#####$$$$#$$##@        ",
"        @###$$$$%&$&$##@        ",
"....  ..@##$***$=$&$$##@..  ....",
"....  ..@##$%%%$=$$%$##@..  ....",
"++..  ..@#$-&&-$&&%%$$#@..  ..++",
"++..  ..@#$-&&-%$%%$$$#@..  ..++",
"++..  ..@#$----%%$$$*$#@..  ..++",
"++..  ..@#$%%%%%%****$#@..  ..++",
"....  ..@##$%%%%****$##@..  ....",
"....  ..@##$********$##@..  ....",
"        @###$$****$$###@        ",
"        @#####$$$$#####@        ",
"        @##############@        ",
"        @@@@@@@@@@@@@@@@        ",
"            ..++++..            ",
"            ..++++..            ",
"            ........            ",
"            ........            ",
"                                ",
"                                ",
"            ........            ",
"            ........            "};
