/* XPM */
static char * enemy[] = {
"32 32 64 1",
" 	c #18A060",
".	c #10B878",
"+	c #18D890",
"@	c #D87800",
"#	c #F88800",
"$	c #E88000",
"%	c #C07018",
"&	c #F89000",
"*	c #F89800",
"=	c #F8A000",
"-	c #F8B000",
";	c #C06800",
">	c #F8B800",
",	c #F8D008",
"'	c #F0C000",
")	c #806848",
"!	c #C87000",
"~	c #F8E870",
"{	c #F8F8C8",
"]	c #F8F8A8",
"^	c #F8D810",
"/	c #A86000",
"(	c #785810",
"_	c #F8F8F8",
":	c #686048",
"<	c #884800",
"[	c #F8C830",
"}	c #985000",
"|	c #F8C068",
"1	c #F8E8B8",
"2	c #F8D898",
"3	c #F88030",
"4	c #683800",
"5	c #C09808",
"6	c #D8D8E0",
"7	c #F0F0F0",
"8	c #E8E8E8",
"9	c #D0B0B8",
"0	c #704000",
"a	c #605050",
"b	c #18D890",
"c	c #504020",
"d	c #A09060",
"e	c #C8C0C0",
"f	c #B0B8B8",
"g	c #B8D0E0",
"h	c #F8F8F0",
"i	c #A06028",
"j	c #585860",
"k	c #988050",
"l	c #989898",
"m	c #808080",
"n	c #205848",
"o	c #B0C0D8",
"p	c #F0D088",
"q	c #608088",
"r	c #507070",
"s	c #A0A8B0",
"t	c #083830",
"u	c #D8B878",
"v	c #286868",
"w	c #C8A058",
"x	c #583000",
"y	c #402000",
"            ........            ",
"            ........            ",
"                                ",
"                                ",
"            ........            ",
"            .@###$%.            ",
"           @&*====*#%           ",
"          @&=-----=*#;          ",
"         ;#*-->,'>-=&@)         ",
"         !&*->~{]^-=*$/         ",
"        (!&*=,{__~-=*$/:        ",
"        <;$&*-~{][=*&@}:        ",
"....  ..</@|12---|123;<:..  ....",
"....  ..4}567_1*[__89/0a..  ....",
"bb..  ..c<defgh=28fffi4j..  ..bb",
"bb..  ..+4klmno=pqrms}4+..  ..bb",
"bb..  ..+4}mnts&uvnvk0a+..  ..bb",
"bb..  ..++4iaaw!$kc)<x++..  ..bb",
"....  ....x4}!}///;<xc....  ....",
"....  .....y4<4yx00xx.....  ....",
"            yx4004xy            ",
"            .yxxxyy.            ",
"            ..yyyy..            ",
"            ..wpuk..            ",
"            ..p]]w..            ",
"            ..u2pd..            ",
"            ........            ",
"            ........            ",
"                                ",
"                                ",
"            ........            ",
"            ........            "};
