/* XPM */
static char * exit[] = {
"32 32 8 1",
" 	c #F8F8F8",
".	c #505050",
"+	c #707070",
"@	c #A0A0A8",
"#	c #284050",
"$	c #386078",
"%	c #0080A8",
"&	c #30A0C0",
"    ..                    ..    ",
"    ..                    ..    ",
"++@@..@@@@@@@@@@@@@@@@@@@@..@@++",
"++@@..@@@@@@@@@@@@@@@@@@@@..@@++",
"................................",
"................................",
"++@@++####################++@@++",
"++@@++####################++@@++",
"++@@++####    $$$$$$$$####++@@++",
"++@@++####    $$$$$$$$####++@@++",
"++@@++##$$    %%%%%%$$$$##++@@++",
"++@@++##$$    %%%%%%$$$$##++@@++",
"++@@++##$$%%&&&&&&&&%%$$##++@@++",
"++@@++##$$%%&&&&&&&&%%$$##++@@++",
"++@@++##$$  &&&&&&&&%%$$##++@@++",
"++@@++##$$  &&&&&&&&%%$$##++@@++",
"++@@++##$$%%&&&&&&&&%%$$##++@@++",
"++@@++##$$%%&&&&&&&&%%$$##++@@++",
"++@@++##$$%%&&&&&&&&%%$$##++@@++",
"++@@++##$$%%&&&&&&&&%%$$##++@@++",
"++@@++##$$$$%%%%%%%%$$$$##++@@++",
"++@@++##$$$$%%%%%%%%$$$$##++@@++",
"++@@++####$$$$$$$$$$$$####++@@++",
"++@@++####$$$$$$$$$$$$####++@@++",
"++@@++####################++@@++",
"++@@++####################++@@++",
"......                    ......",
"......                    ......",
"++@@..@@@@@@@@@@@@@@@@@@@@..@@++",
"++@@..@@@@@@@@@@@@@@@@@@@@..@@++",
"................................",
"................................"};
