/* XPM */
static char * floor[] = {
"32 32 3 1",
" 	c #18A060",
".	c #10B878",
"+	c #18D890",
"            ........            ",
"            ........            ",
"                                ",
"                                ",
"            ........            ",
"            ........            ",
"            ..++++..            ",
"            ..++++..            ",
"            ..++++..            ",
"            ..++++..            ",
"            ........            ",
"            ........            ",
"....  ........    ........  ....",
"....  ........    ........  ....",
"++..  ..++++..    ..++++..  ..++",
"++..  ..++++..    ..++++..  ..++",
"++..  ..++++..    ..++++..  ..++",
"++..  ..++++..    ..++++..  ..++",
"....  ........    ........  ....",
"....  ........    ........  ....",
"            ........            ",
"            ........            ",
"            ..++++..            ",
"            ..++++..            ",
"            ..++++..            ",
"            ..++++..            ",
"            ........            ",
"            ........            ",
"                                ",
"                                ",
"            ........            ",
"            ........            "};
