/* XPM */
static char * player_down_xpm[] = {
"32 32 17 1",
" 	c #18A060",
".	c #10B878",
"+	c #B80088",
"@	c #F838C0",
"#	c #F8F8F8",
"$	c #B0B0B0",
"%	c #E8E8E8",
"&	c #606060",
"*	c #D03800",
"=	c #F8B890",
"-	c #000000",
";	c #18D890",
">	c #A098A0",
",	c #000058",
"'	c #0000F8",
")	c #58A0F8",
"!	c #A08850",
"            ........            ",
"            ........            ",
"                                ",
"                                ",
"            ...++...            ",
"            ..+@#+..            ",
"            $%%%%%$.            ",
"          &$%%%%%%%%$           ",
"         &$%%%%%%%#%%$          ",
"         &%%%%%%%%%%%%          ",
"        &$%%%%%%%%%%%%$         ",
"        &$%*********%%$         ",
"....  ..&$*==-===-==*%$...  ....",
"....  ..&$*==-===-==*%$...  ....",
";;..  ..&$*==-===-==*$&;..  ..;;",
";;..  ..;&*==-===-==*&;;..  ..;;",
";;..  ..;;&*********&;;;..  ..;;",
";;..  ..;>>-&&&&&&&->>;;..  ..;;",
"....  ...>#-,,'')#,,>#....  ....",
"....  ...+@-,'''))'-+@....  ....",
"         ++,--!=!--,++          ",
"          ->,,'))',>            ",
"         -->>,,'',>#            ",
"        --->#>--->>>-           ",
"        ---+@+---+@+-           ",
"         --+@#---+@#-           ",
"          -+++---+++            ",
"            ------..            ",
"                                ",
"                                ",
"            ........            ",
"            ........            "};
