/* XPM */
static char * wall
[] = {
"32 32 92 2",
"  	c #858585",
". 	c #515151",
"+ 	c #737373",
"@ 	c #757575",
"# 	c #767676",
"$ 	c #828282",
"% 	c #5E5E5E",
"& 	c #2C2C2C",
"* 	c #353535",
"= 	c #343434",
"- 	c #3A3A3A",
"; 	c #505050",
"> 	c #484848",
", 	c #303030",
"' 	c #414141",
") 	c #5D5D5D",
"! 	c #888888",
"~ 	c #878787",
"{ 	c #535353",
"] 	c #747474",
"^ 	c #818181",
"/ 	c #606060",
"( 	c #3C3C3C",
"_ 	c #494949",
": 	c #2D2D2D",
"< 	c #404040",
"[ 	c #575757",
"} 	c #868686",
"| 	c #7D7D7D",
"1 	c #555555",
"2 	c #4F4F4F",
"3 	c #5F5F5F",
"4 	c #717171",
"5 	c #727272",
"6 	c #646464",
"7 	c #3B3B3B",
"8 	c #545454",
"9 	c #444444",
"0 	c #464646",
"a 	c #393939",
"b 	c #313131",
"c 	c #6A6A6A",
"d 	c #7F7F7F",
"e 	c #616161",
"f 	c #3E3E3E",
"g 	c #5B5B5B",
"h 	c #434343",
"i 	c #323232",
"j 	c #2F2F2F",
"k 	c #5A5A5A",
"l 	c #6D6D6D",
"m 	c #6F6F6F",
"n 	c #797979",
"o 	c #6B6B6B",
"p 	c #808080",
"q 	c #666666",
"r 	c #3F3F3F",
"s 	c #424242",
"t 	c #5C5C5C",
"u 	c #707070",
"v 	c #4C4C4C",
"w 	c #848484",
"x 	c #626262",
"y 	c #373737",
"z 	c #7E7E7E",
"A 	c #4B4B4B",
"B 	c #6E6E6E",
"C 	c #838383",
"D 	c #525252",
"E 	c #454545",
"F 	c #585858",
"G 	c #656565",
"H 	c #363636",
"I 	c #787878",
"J 	c #696969",
"K 	c #2E2E2E",
"L 	c #383838",
"M 	c #686868",
"N 	c #676767",
"O 	c #333333",
"P 	c #4A4A4A",
"Q 	c #636363",
"R 	c #4E4E4E",
"S 	c #777777",
"T 	c #3D3D3D",
"U 	c #4D4D4D",
"V 	c #595959",
"W 	c #7A7A7A",
"X 	c #7B7B7B",
"Y 	c #474747",
"Z 	c #2B2B2B",
"` 	c #7C7C7C",
"  . . + @ @ @ @ @ # # # $     % & * = & & & & - ; > , ' ) ! ~ ~ ",
"{ . ] @ @ @ @ @ @ @ @ @ @ ^ ~ / & & & & & & ( ; _ : , < . { [ # ",
"{ + @ @ @ @ @ @ @ $ } ~ } ~ | 1 & ' 2 2 3 4 5 + 6 & , 7 < . ; < ",
"8                 ~ 1 9 0 < a b < 2 . . c d @ @ + e & b ( f f - ",
"* g g g g g g g g g h i j : k l m n o . o p @ @ @ q & & j j j j ",
": r r r ; . s r r r ( b t l 5 @ | } u . v 6 w p @ 5 x & & & * c ",
"& , , 7 < y , , , , e o 4 @ @ z   ] t A y A u } p @ 5 c c c o ] ",
"+ & & , , & & B # o 5 @ @ z C   @ D h r a E F m } d @ @ @ @ @ @ ",
"  6 : & & e v d ~ n @ @ @ ^ + G 1 r H b * f h 2 u } $ p @ @ @ @ ",
"  ) : & e ] E . d C I @ z   J . 0 H j & K b * f A g q } $ $ $ $ ",
") h : e ] @ q L D z $ ^   ] 2 < 7 j & _ D & K i i i ( k % / M N ",
"O = % ] @ @ @ x 7 8 # | 4 g ' a = & P J l 3 3 3 8 & & : O * f 9 ",
") ) ] @ @ @ @ @ Q 7 R 3 F P 7 O , A c @ @ @ @ @ m ) / Q = , > l ",
"d d d @ @ @ @ @ | m ' < 0 7 j & P c @ @ @ @ @ @ @ @ n | a O 8 m ",
"u d ~ d z d # |   l h = = j - ' e @ @ @ @ @ @ @ I z p | a O . { ",
"D N 5 d d } d   S 0 = j - < A t 5 | n @ @ @ I z p d c G a , 9 . ",
". . . N M + u m D f , & T U . 3 m d $ | | | ^ ^ ] q * - = = D _ ",
"E _ _ _ _ _ T 1 V P < i & < _ R . q @ @ @ @ @ c 2 E - ( 8 g W e ",
"& H H H H H H l @ G / 8 - O a 9 P P R . . . . R h f 0 [ @ S $ w ",
"P - - P A A A m @ @ @ @ g A r y y a 9 A A A P ' = A Q @ @ @ # $ ",
"o . . ] @ @ @ @ @ @ @ n W 4 ; i & O y y a 7 y a 2 6 @ @ @ @ @ # ",
". . t ] @ @ @ @ @ @ n C d Q R ( & & & & b y y . @ @ @ @ @ @ @ X ",
". D ] @ @ n n # I n w p 3 v s O a h L & & & & v @ @ @ @ @ @ S } ",
". D @ @ I } ^ n w ^ p 3 7 * a ( 3 @ ) f f f L Y u I I S @ @ W w ",
"U R @ @ } $ V X ^ % 2 ' - b * x @ @ @ @ @ @ 6 y . d ^ w I W ~ d ",
"& K B @ ^ 1 . . 2 ; ' - b = Q @ @ @ @ @ @ @ @ J h y _ p $ $ | . ",
"& b & u D ; ; ; < A < , j 6 @ @ @ @ @ @ @ @ @ X S 7 L * ; ; ; ; ",
"O @ i Z a - 7 - - j & K 6 @ @ @ @ @ @ @ @ @ @ X S 7 7 7 f U - - ",
"] @   b & & a j & : & q @ @ @ @ @ @ @ @ @ @ ` ~ # y & : & & & : ",
"@ # } b & & & & & J $ } ~ ~ ~ ~ ~ ~ ~ d | ~ ~ @ L & 9 o & & y @ ",
"# ~ ~ D ; , U B + E 7 U { { { { { { u ~ ~ @ { v y a P s + + + @ ",
"} ~ ~ { . 2 m @ @ 9 : j , a T T T _ 8 [ 2 ' T a : a P Y w @ @ @ "};
